<?xml version="1.0" encoding="UTF-8" standalone="no"?>
<svg
   width="16"
   height="16"
   viewBox="0 0 16 16"
   version="1.1"
   id="svg4"
   sodipodi:docname="16-actions-minuet-clap-symbolic.svg"
   inkscape:version="1.4.4 (dcaf3e7d9e, 2026-05-05)"
   xmlns:inkscape="http://www.inkscape.org/namespaces/inkscape"
   xmlns:sodipodi="http://sodipodi.sourceforge.net/DTD/sodipodi-0.dtd"
   xmlns="http://www.w3.org/2000/svg"
   xmlns:svg="http://www.w3.org/2000/svg">
  <sodipodi:namedview
     id="namedview4"
     pagecolor="#ffffff"
     bordercolor="#000000"
     borderopacity="0.25"
     inkscape:showpageshadow="2"
     inkscape:pageopacity="0.0"
     inkscape:pagecheckerboard="0"
     inkscape:deskcolor="#d1d1d1"
     inkscape:zoom="49.8125"
     inkscape:cx="7.9899624"
     inkscape:cy="8"
     inkscape:window-width="1920"
     inkscape:window-height="1006"
     inkscape:window-x="0"
     inkscape:window-y="0"
     inkscape:window-maximized="1"
     inkscape:current-layer="g4" />
  <defs
     id="defs1">
    <style
       id="current-color-scheme"
       type="text/css">.ColorScheme-Text {
        color:#4d4d4d;
      }</style>
  </defs>
  <g
     class="ColorScheme-Text"
     style="fill:none;stroke:currentColor;stroke-width:1;stroke-linecap:round;stroke-linejoin:round"
     id="g4">
    <g
       id="g5"
       transform="translate(-0.20111369,0.66381164)">
      <path
         d="M 5.2,13.4 C 3.48,12.52 2.55,10.62 2.94,8.72 3.1,7.94 3.42,7.15 3.8,6.49 4,6.15 4.44,6.04 4.76,6.25 5.01,6.41 5.13,6.71 5.06,6.99 L 4.8,8.09 8.44,3.99 C 8.73,3.67 9.22,3.64 9.54,3.92 9.84,4.18 9.88,4.64 9.65,4.95 L 7.4,7.5 10.36,4.15 c 0.29,-0.32 0.78,-0.35 1.1,-0.07 0.32,0.29 0.35,0.78 0.07,1.1 L 8.78,8.27 11.03,5.74 c 0.29,-0.32 0.78,-0.35 1.1,-0.07 0.32,0.29 0.35,0.78 0.07,1.1 l -2.17,2.45 1.24,-1.4 c 0.29,-0.32 0.78,-0.35 1.1,-0.07 0.32,0.29 0.35,0.78 0.07,1.1 l -2.93,3.3 c -1.04,1.16 -2.74,1.51 -4.27,1.23 z"
         id="path1" />
      <path
         d="m 9.2,2.2 v -1"
         id="path2" />
      <path
         d="M 11.4,3 12.15,2.25"
         id="path3" />
      <path
         d="M 12.5,5 13.55,4.72"
         id="path4" />
    </g>
  </g>
</svg>
