<?xml version="1.0" encoding="UTF-8"?>
<!--
SPDX-FileCopyrightText: 2026 Sandro Andrade <sandroandrade@kde.org>
SPDX-FileCopyrightText: KDE Visual Design Group
SPDX-License-Identifier: LGPL-2.0-or-later
-->
<svg xmlns="http://www.w3.org/2000/svg" width="1024" height="500" viewBox="0 0 1024 500" version="1.1">
  <defs>
    <linearGradient id="background" x1="0" y1="0" x2="1" y2="1">
      <stop offset="0" stop-color="#f8fbfd"/>
      <stop offset="1" stop-color="#eef3f7"/>
    </linearGradient>
    <linearGradient id="surface" x1="0" y1="0" x2="1" y2="1">
      <stop offset="0" stop-color="#ffffff"/>
      <stop offset="1" stop-color="#f6f9fc"/>
    </linearGradient>
    <linearGradient id="blueAccent" x1="0" y1="0" x2="1" y2="1">
      <stop offset="0" stop-color="#1d99f3"/>
      <stop offset="1" stop-color="#146fb3"/>
    </linearGradient>
    <filter id="softShadow" x="-20%" y="-20%" width="140%" height="140%">
      <feDropShadow dx="0" dy="16" stdDeviation="22" flood-color="#1f2937" flood-opacity="0.12"/>
    </filter>
  </defs>

  <rect width="1024" height="500" fill="url(#background)"/>
  <rect x="64" y="62" width="896" height="376" rx="0" fill="url(#surface)" filter="url(#softShadow)"/>
  <rect x="64" y="62" width="896" height="376" rx="0" fill="none" stroke="#d8e2ec" stroke-width="1.5"/>
  <rect x="64" y="62" width="8" height="376" fill="url(#blueAccent)"/>

  <g transform="translate(548 130)" opacity="0.08" stroke="#405468" stroke-width="2">
    <line x1="0" y1="0" x2="332" y2="0"/>
    <line x1="0" y1="24" x2="332" y2="24"/>
    <line x1="0" y1="48" x2="332" y2="48"/>
    <line x1="0" y1="72" x2="332" y2="72"/>
    <line x1="0" y1="96" x2="332" y2="96"/>
  </g>
  <g transform="translate(612 164)" fill="none" stroke="#1d99f3" stroke-width="6" stroke-linecap="round" stroke-linejoin="round" opacity="0.34">
    <path d="M0 40 C34 -18 78 -18 112 40 S190 98 224 40"/>
    <circle cx="0" cy="40" r="8" fill="#1d99f3" stroke="none"/>
    <circle cx="112" cy="40" r="8" fill="#1d99f3" stroke="none"/>
    <circle cx="224" cy="40" r="8" fill="#1d99f3" stroke="none"/>
  </g>

  <g transform="translate(116 130)">
    <rect x="0" y="0" width="196" height="196" rx="24" fill="#f8fafc" stroke="#d8e2ec" stroke-width="1.5"/>
    <!-- Previous embedded icon disabled; use repository Minuet logo below. -->
    <rect x="30" y="30" width="136" height="136" rx="18" fill="#f8fafc"/>
    <g transform="translate(42 58)">
      <rect x="0" y="0" width="18" height="84" fill="#ff5d69"/>
      <rect x="18" y="0" width="18" height="84" fill="#ff9b55"/>
      <rect x="36" y="0" width="18" height="84" fill="#ffd46b"/>
      <rect x="54" y="0" width="18" height="84" fill="#5fda7a"/>
      <rect x="72" y="0" width="18" height="84" fill="#48c7a9"/>
      <rect x="90" y="0" width="18" height="84" fill="#5f83d7"/>
      <rect x="108" y="0" width="18" height="84" fill="#9d63b8"/>
      <path d="M0 0 H126 V84 H0 Z" fill="none" stroke="#d8e2ec" stroke-width="1.5"/>
      <g fill="#2d3743" stroke="#18212b" stroke-width="1.8">
        <rect x="12" y="-8" width="12" height="50"/>
        <rect x="34" y="-8" width="12" height="50"/>
        <rect x="72" y="-8" width="12" height="50"/>
        <rect x="92" y="-8" width="12" height="50"/>
        <rect x="112" y="-8" width="12" height="50"/>
      </g>
      <g opacity="0.16" fill="#ffffff">
        <path d="M0 28 L28 84 H0 Z"/>
        <path d="M50 0 L126 74 V84 H86 L42 0 Z"/>
      </g>
      <rect x="0" y="78" width="126" height="6" fill="#000000" opacity="0.12"/>
    </g>
  </g>

  <g transform="translate(360 150)">
    <text x="0" y="0" fill="#16202a" font-family="Noto Sans, Arial, sans-serif" font-size="56" font-weight="700">Minuet</text>
    <rect x="0" y="28" width="88" height="5" fill="#1d99f3"/>
    <text x="0" y="78" fill="#405468" font-family="Noto Sans, Arial, sans-serif" font-size="28" font-weight="500">Practice ear training with exercises</text>
    <text x="0" y="116" fill="#405468" font-family="Noto Sans, Arial, sans-serif" font-size="28" font-weight="500">for intervals, chords, rhythm, scales,</text>
    <text x="0" y="154" fill="#405468" font-family="Noto Sans, Arial, sans-serif" font-size="28" font-weight="500">and more.</text>
  </g>

  <g transform="translate(770 382)">
    <text x="0" y="30" fill="#405468" font-family="Noto Sans, Arial, sans-serif" font-size="23" font-weight="500">by</text>
    <g transform="translate(42 0)">
      <path d="m26.81721 6.0579518-5.977432.5722243v24.6132839l5.914217-.890396v-10.493982l7.94986 11.63921 6.232374-1.972015-8.140472-11.193509 8.204242-10.5576331-6.359358-1.46211-7.886507 10.5571941zm-13.549395 5.9978532c-.0675.0071-.132687.03685-.183377.08773l-2.346015 2.345604c-.09864.09893-.11722.252309-.0445.372086l2.746696 4.523795c-.487167.819006-.877623 1.70206-1.156683 2.633586l-5.0425552 1.048867c-.1402951.029055-.2413813.153367-.2413813.297337v3.317296c0 .140314.095983.261806.2311699.294475l4.8943156 1.196322c.260998 1.07887.665445 2.101628 1.199988 3.041644l-2.832973 4.319972c-.07904.120754-.06252.279776.0396.381468l2.345182 2.345604c.09864.09836.252621.117637.372908.04535l4.43931-2.696114c.872008.503187 1.812374.899183 2.806296 1.16772l1.035783 4.980041c.02915.141164.153885.241396.296928.241396h3.317709c.139477 0 .261191-.09524.294481-.232013l1.219994-4.990317c1.024557-.276502 1.993542-.688627 2.886878-1.21469l4.374709 2.868406c.120287.07923.279379.06335.38148-.03869l2.346016-2.34559c.09924-.09921.117013-.252607.04409-.372072l-1.597029-2.631956-.516676.163387c-.07532.02381-.157452-.0043-.201758-.06987 0 0-1.01864-1.491165-2.334206-3.41665-1.572715 3.077927-4.772331 5.186372-8.467241 5.186372-5.249568 0-9.505489-4.256079-9.505489-9.505904 0-3.861926 2.303503-7.183248 5.610236-8.671068v-2.452313c-.601827.210541-1.183648.464396-1.73624.765418-.000404-.000369-.000809-.0014-.0024-.0028l-4.477658-2.936763c-.0603-.0394-.130199-.05513-.197673-.04819z" fill="#1d99f3"/>
    </g>
    <text x="100" y="30" fill="#1f2937" font-family="Noto Sans, Arial, sans-serif" font-size="25" font-weight="700">KDE</text>
  </g>
</svg>
